<svg xmlns="http://www.w3.org/2000/svg" xmlns:xlink="http://www.w3.org/1999/xlink" aria-hidden="true" role="img" class="iconify iconify--logos" width="35.93" height="32" preserveAspectRatio="xMidYMid meet" viewBox="0 0 256 228"><path fill="#00D8FF" d="M210.483 73.824a171.49 171.49 0 0 0-11.277-2.597c.465-1.674.893-3.301 1.273-4.874c6.238-25.281 4.156-44.496-5.843-54.264c-9.516-9.274-26.312-12.534-48.476-9.235a171.23 171.23 0 0 0-10.516 2.328a155.866 155.866 0 0 0-33.607-3.626c-11.42 0-22.456 1.28-32.854 3.626a145.785 145.785 0 0 0-9.884-2.328C27.177 1.268 10.381 4.528.865 13.802c-10 9.768-12.081 28.983-5.843 54.264c.38 1.573.808 3.2 1.273 4.874a171.49 171.49 0 0 0-11.277 2.597C-13.689 91.5-12.854 115.807 5.743 142.979c17.781 26.27 49.832 54.458 87.358 70.966a155.91 155.91 0 0 0 16.968 5.38a145.23 145.23 0 0 0 8.584 1.823c2.647.494 5.316.894 7.998 1.2c.447.051.894.099 1.343.141c5.472.504 11.003.76 16.568.76c5.565 0 11.096-.256 16.568-.76c.45-.042.896-.09 1.343-.141a155.712 155.712 0 0 0 7.998-1.2a156.276 156.276 0 0 0 8.584-1.823a155.91 155.91 0 0 0 16.968-5.38c37.526-16.508 69.577-44.696 87.358-70.966c18.596-27.172 19.432-51.479 8.724-69.155Zm-6.376 63.694c-15.27 22.553-43.582 47.838-77.263 63.07a144.04 144.04 0 0 1-14.737 5.19a135.318 135.318 0 0 1-7.637 1.888c-2.411.45-4.836.826-7.27 1.126a135.11 135.11 0 0 1-14.929.826c-5.089 0-10.14-.257-15.137-.764c-2.434-.3-4.859-.676-7.27-1.126a135.318 135.318 0 0 1-7.637-1.888a144.04 144.04 0 0 1-14.737-5.19c-33.681-15.232-61.993-40.517-77.263-63.07C5.743 113.306 5.073 93.906 13.55 80.348a144.89 144.89 0 0 1 9.14-1.809c2.127-.4 4.268-.766 6.42-1.097c.38-1.674.808-3.301 1.273-4.874c.057-.23.115-.46.175-.688c4.856-19.678 6.115-35.362 2.078-45.97c-3.745-10.006-13.13-13.534-26.958-11.286a144.9 144.9 0 0 0-8.584 2.093c-.057.026-.114.051-.17.077c5.038 20.413 13.744 42.307 25.467 62.93c1.28 2.26 2.6 4.495 3.957 6.704a145.785 145.785 0 0 0 9.884-2.328c.057-.026.114-.051.17-.077a155.866 155.866 0 0 1 33.607-3.626h.006c11.42 0 22.456 1.28 32.854 3.626c.057.026.114.051.17.077a145.785 145.785 0 0 0 9.884 2.328a171.23 171.23 0 0 0 10.516-2.328h.006c.057-.026.114-.051.17-.077c10.399-2.346 21.435-3.626 32.854-3.626h.006c11.42 0 22.456 1.28 32.854 3.626c.057.026.114.051.17.077a171.23 171.23 0 0 0 10.516 2.328c1.357-2.209 2.677-4.444 3.957-6.704c11.723-20.623 20.429-42.517 25.467-62.93c-.057-.026-.114-.051-.17-.077a144.9 144.9 0 0 0-8.584-2.093c-13.828-2.248-23.213 1.28-26.958 11.286c-4.037 10.608-2.778 26.292 2.078 45.97c.06.228.118.458.175.688c.465 1.573.893 3.2 1.273 4.874c2.152.331 4.293.697 6.42 1.097a144.89 144.89 0 0 1 9.14 1.809c8.477 13.558 7.807 32.958-2.557 57.17Z"></path><path fill="#00D8FF" d="M132.374 132.374L132.374 132.374L132.374 132.374ZM132.374 132.374L132.374 132.374L132.374 132.374ZM132.374 132.374L132.374 132.374L132.374 132.374Z"></path></svg>

